<svg xmlns="http://www.w3.org/2000/svg" width="720" height="430" viewBox="0 0 720 430">
      <defs>
        <filter id="shadow" x="-20%" y="-20%" width="140%" height="140%"><feDropShadow dx="0" dy="12" stdDeviation="12" flood-color="#4d7c87" flood-opacity="0.18"/></filter>
      </defs>
      <rect width="720" height="430" rx="38" fill="#f9fffb"/>
      <path d="M0 0h720v126c-72 34-151 40-236 17-91-24-158-18-238 17-95 42-178 21-246-20z" fill="#ecffc8" opacity="0.82"/>
      <text x="360" y="70" text-anchor="middle" font-family="PingFang SC, Microsoft YaHei, sans-serif" font-size="34" font-weight="900" fill="#3e5d66">最适合和TA们一起玩</text>
      <g transform="translate(275,102)" filter="url(#shadow)">
        <rect x="0" y="0" width="170" height="62" rx="31" fill="#fff"/>
        <text x="54" y="43" text-anchor="middle" font-size="34">🥕</text>
        <text x="108" y="40" text-anchor="middle" font-family="PingFang SC, Microsoft YaHei, sans-serif" font-size="28" font-weight="900" fill="#6a8b3b">萝卜</text>
      </g>
      
        <g transform="translate(105,190)">
          <rect x="0" y="0" width="170" height="165" rx="28" fill="#ffffff" stroke="#bdeaf2" stroke-width="5"/>
          <circle cx="85" cy="58" r="38" fill="#ffd6c8"/>
          <text x="85" y="73" text-anchor="middle" font-size="46">🍎</text>
          <text x="85" y="120" text-anchor="middle" font-family="PingFang SC, Microsoft YaHei, sans-serif" font-size="28" font-weight="800" fill="#9d3d3b">苹果</text>
          <text x="85" y="145" text-anchor="middle" font-family="PingFang SC, Microsoft YaHei, sans-serif" font-size="17" font-weight="700" fill="#77909a">一起推进避坑</text>
        </g>
        <g transform="translate(305,190)">
          <rect x="0" y="0" width="170" height="165" rx="28" fill="#ffffff" stroke="#bdeaf2" stroke-width="5"/>
          <circle cx="85" cy="58" r="38" fill="#efdcc4"/>
          <text x="85" y="73" text-anchor="middle" font-size="46">🥥</text>
          <text x="85" y="120" text-anchor="middle" font-family="PingFang SC, Microsoft YaHei, sans-serif" font-size="28" font-weight="800" fill="#9a614c">椰子</text>
          <text x="85" y="145" text-anchor="middle" font-family="PingFang SC, Microsoft YaHei, sans-serif" font-size="17" font-weight="700" fill="#77909a">踩坑后补血</text>
        </g>
        <g transform="translate(505,190)">
          <rect x="0" y="0" width="170" height="165" rx="28" fill="#ffffff" stroke="#bdeaf2" stroke-width="5"/>
          <circle cx="85" cy="58" r="38" fill="#fff0ad"/>
          <text x="85" y="73" text-anchor="middle" font-size="46">🍌</text>
          <text x="85" y="120" text-anchor="middle" font-family="PingFang SC, Microsoft YaHei, sans-serif" font-size="28" font-weight="800" fill="#8a6334">香蕉</text>
          <text x="85" y="145" text-anchor="middle" font-family="PingFang SC, Microsoft YaHei, sans-serif" font-size="17" font-weight="700" fill="#77909a">帮TA少想一点</text>
        </g>
    </svg>